<svg xmlns="http://www.w3.org/2000/svg" viewBox="0 0 21.88 17.24"><g data-name="レイヤー 2"><path d="M21.88 2a8.93 8.93 0 0 1-2.58.68 4.33 4.33 0 0 0 2-2.4 8.86 8.86 0 0 1-2.85 1.05A4.56 4.56 0 0 0 15.15 0a4.42 4.42 0 0 0-4.49 4.35 4.62 4.62 0 0 0 .11 1A12.89 12.89 0 0 1 1.52.8 4.27 4.27 0 0 0 .92 3a4.33 4.33 0 0 0 2 3.63 4.65 4.65 0 0 1-2-.55v.06a4.39 4.39 0 0 0 3.6 4.26 4.6 4.6 0 0 1-1.18.16 4.8 4.8 0 0 1-.85-.08 4.47 4.47 0 0 0 4.2 3 9.2 9.2 0 0 1-5.58 1.86A9.46 9.46 0 0 1 0 15.28a13 13 0 0 0 6.88 2A12.48 12.48 0 0 0 19.65 4.86v-.57A9 9 0 0 0 21.88 2z" fill="#fff" data-name="レイヤー 1"/></g></svg>