<svg xmlns="http://www.w3.org/2000/svg" viewBox="0 0 25.6 30.4" width="111" height="131"><defs><style>.b{fill:#ff5c00}</style></defs><path d="M12.8 26.08c-6 0-10.92-1.18-11.91-2.74a.1.1 0 0 0-.19.05v3.69c0 1.83 5.42 3.32 12.1 3.32s12.09-1.49 12.09-3.32v-3.69a.1.1 0 0 0-.18-.05c-.99 1.56-5.95 2.74-11.91 2.74z" fill="#ffbf00"/><circle class="b" cx="5.34" cy="13.36" r="1.45"/><path class="b" d="M8.46 13.38l-2 1.45a1.89 1.89 0 0 1-2.2 0l-2-1.45c-.15-.1-.32.1-.23.28l1.91 3.5a.2.2 0 0 1 0 .13l-.61 4.84c0 .2.18.31.29.16l1.61-2.35a.16.16 0 0 1 .26 0l1.61 2.35c.11.15.32 0 .29-.16l-.62-4.84a.31.31 0 0 1 0-.13l1.91-3.5c.1-.18-.07-.38-.22-.28z"/><circle class="b" cx="20.26" cy="13.36" r="1.45"/><path class="b" d="M23.38 13.38l-2 1.45a1.89 1.89 0 0 1-2.2 0l-2-1.45c-.15-.1-.31.1-.22.28l1.91 3.5a.2.2 0 0 1 0 .13l-.61 4.84c0 .2.18.31.29.16l1.61-2.35a.16.16 0 0 1 .26 0L22 22.29c.11.15.32 0 .29-.16l-.62-4.84a.31.31 0 0 1 0-.13l1.91-3.5c.12-.18-.05-.38-.2-.28z"/><circle class="b" cx="12.8" cy="14.6" r="1.65"/><path class="b" d="M16.36 14.64l-2.31 1.65a2.13 2.13 0 0 1-2.5 0l-2.32-1.65c-.17-.13-.36.11-.25.31l2.17 4a.21.21 0 0 1 0 .15l-.7 5.53c0 .22.21.35.33.17l1.84-2.67a.18.18 0 0 1 .29 0l1.85 2.67c.12.18.36.05.33-.17l-.71-5.53a.4.4 0 0 1 0-.15l2.18-4c.17-.2-.03-.44-.2-.31zM3.82 11a.33.33 0 0 1-.21-.07L.18 8.68a.39.39 0 0 1-.12-.53A.4.4 0 0 1 .6 8L4 10.27a.39.39 0 0 1 .11.54.4.4 0 0 1-.29.19zm3.83-2.5a.37.37 0 0 1-.34-.21L4.4 2.74a.38.38 0 0 1 .16-.52.39.39 0 0 1 .53.16L8 7.93a.4.4 0 0 1-.17.53.34.34 0 0 1-.18.04zm5.14-1.1a.39.39 0 0 1-.39-.4V.39a.38.38 0 0 1 .39-.39.39.39 0 0 1 .39.39V7a.4.4 0 0 1-.39.4zm8.99 3.6a.41.41 0 0 1-.33-.18.4.4 0 0 1 .12-.54L25 8a.39.39 0 0 1 .53.12.37.37 0 0 1-.11.53L22 10.92a.35.35 0 0 1-.22.08zm-3.84-2.5a.38.38 0 0 1-.34-.57l2.91-5.55a.39.39 0 0 1 .69.36l-2.91 5.55a.38.38 0 0 1-.35.21z"/></svg>