<svg xmlns="http://www.w3.org/2000/svg" viewBox="0 0 27.38 17.58" width="118" height="78"><defs><style>.b{fill:#ffbf00}.c{fill:#fff}</style></defs><path d="M13.69 12.14c4 0 5.55-.49 6.94 3 1.62 4 7 2.75 6.74-.9A95.38 95.38 0 0 0 25.79 3.3C25.35 1.11 24.63 0 22.67 0h-2.45C16.7 0 17 1.7 13.69 1.7S10.68 0 7.16 0H4.7C2.74 0 2 1.11 1.59 3.3A95.38 95.38 0 0 0 0 14.2c-.27 3.65 5.12 4.9 6.73.9 1.4-3.45 2.95-2.91 6.96-2.96z" fill="#ff5c00"/><circle class="b" cx="20.25" cy="6.54" r="4.4"/><circle class="c" cx="18.14" cy="6.54" r=".85"/><circle class="c" cx="22.36" cy="6.54" r=".85"/><circle class="c" cx="20.34" cy="8.65" r=".85"/><circle class="c" cx="20.34" cy="4.43" r=".85"/><circle class="b" cx="7.13" cy="6.54" r="4.4"/><path class="c" d="M9.35 5.79H7.88V4.32a.75.75 0 1 0-1.5 0v1.47H4.91a.75.75 0 0 0 0 1.5h1.47v1.47a.75.75 0 0 0 1.5 0V7.29h1.47a.75.75 0 0 0 0-1.5z"/></svg>