<svg xmlns="http://www.w3.org/2000/svg" viewBox="0 0 33.09 29.46" width="142" height="127"><defs><style>.a{fill:#e60000}.b{fill:#ffbf00}.c{fill:#ff5c00}</style></defs><path class="a" d="M33.09 16.13l-1.74-3.54-1.59-.66a1.92 1.92 0 0 1-2 .36 1.9 1.9 0 0 1-1.17-1.71L25 9.92l-3.75 1.23 1.21 3 1.42-.35-2.21 4.88 5.8 2.43 1.93-5 .74 1.26z"/><path class="b" d="M18.43 3.67l-2 .45-.68-2.95L13.92 0l-3.61.84-1.17 1.87.69 3-1.95.45 2.18 9 2.31 1.47L19 15.07l1.42-2.34zm-7.76 1.8l-.6-2.61.78-1.26 2.91-.68 1.24.79.6 2.61z"/><path class="c" d="M9.56 17.57A2 2 0 0 0 8.13 17l-.94-1.1a.21.21 0 0 0-.35.07l-.57 1.59c-.14.1-.29.21-.43.33l-.69-.76a.25.25 0 0 0-.32 0c-.11.1-.14.25-.07.32l.7.77a4 4 0 0 0-.4.52l-1.59.56a.21.21 0 0 0-.07.35l1.08.92A2 2 0 0 0 5 21.89c.88 1 2.61.8 3.88-.4s1.55-2.94.68-3.92zm-6.2-1.65a.23.23 0 0 0 .32 0 .24.24 0 0 0 .07-.32l-.63-.68A1.73 1.73 0 0 0 3 12.59a1.75 1.75 0 1 0-.3 2.61zM.79 14.64a1.31 1.31 0 0 1-.34-.93 1.23 1.23 0 0 1 .42-.89 1.26 1.26 0 0 1 .87-.34 1.29 1.29 0 1 1-.95 2.16zm2.79 1.67a.41.41 0 0 0 .11.31l.4.43a.41.41 0 0 0 .32.14.46.46 0 0 0 .29-.11l.09-.08a.42.42 0 0 0 0-.6l-.37-.4a.44.44 0 0 0-.61 0h-.09a.41.41 0 0 0-.14.31zm.34-.08l.1-.08a.09.09 0 0 1 .08 0 .18.18 0 0 1 .1 0l.4.44a.14.14 0 0 1 0 .18l-.09.09a.14.14 0 0 1-.19 0l-.4-.43a.17.17 0 0 1 0-.1.18.18 0 0 1 0-.1z"/><path class="a" d="M21 21.91l-4 2.38a.56.56 0 0 1-.31.09l-.13 4.88v.2l4.14-2.34a.53.53 0 0 0 .3-.42l.1-4.9a.19.19 0 0 1-.1.11z"/><path class="c" d="M16.66 24.38a.72.72 0 0 1-.33-.07l-3.86-2.06a.4.4 0 0 1-.22-.35v4.75a.56.56 0 0 0 .3.48l4 2.32v-.2z"/><path class="b" d="M21 21.67l-3.86-2.07a1.08 1.08 0 0 0-1 0l-3.71 2a.41.41 0 0 0-.22.33.4.4 0 0 0 .22.35l3.86 2.06a.72.72 0 0 0 .33.07.56.56 0 0 0 .31-.09l4-2.38a.19.19 0 0 0 .07-.11.14.14 0 0 0 0-.16z"/></svg>