<svg data-name="レイヤー 1" xmlns="http://www.w3.org/2000/svg" width="151.45" height="27.16" viewBox="0 0 429.32 76.99"><path d="M161.43 12.23h-11.68a.83.83 0 0 0-.79 1.13c2.94 7.82 6.33 18.37 8.35 25.79a.83.83 0 0 0 .81.61h12.2a.83.83 0 0 0 .8-1.07c-2.24-7.67-6.2-19.25-8.93-25.95a.83.83 0 0 0-.76-.51zm61.74 36.6V33.68a.85.85 0 0 1 .84-.84h36.2a.84.84 0 0 0 .84-.84V21.76a.85.85 0 0 0-.84-.84h-36.2a.85.85 0 0 1-.84-.84v-8.47a.83.83 0 0 0-.84-.84h-11.59a.84.84 0 0 0-.84.84v40c0 10.71 4.89 14.77 16.31 14.77h34.69a.84.84 0 0 0 .84-.84V55.07a.85.85 0 0 0-.84-.84h-31.58c-4.19 0-6.16-.89-6.16-5.4zm-62.64 6.73v10.73a.85.85 0 0 0 .95.84c25.75-3 44.12-18.61 44.6-54.17a.86.86 0 0 0-.85-.86h-11.9a.84.84 0 0 0-.83.83c-.42 27.78-12.51 38.28-31.28 41.81a.83.83 0 0 0-.7.82zm-70-32h38.69a.84.84 0 0 1 .81 1.08 16.37 16.37 0 0 1-9 11.05.84.84 0 0 1-1.2-.81c.09-1.25.12-2.56.12-3.9v-2.2a.84.84 0 0 0-.84-.84h-10.75a.84.84 0 0 0-.84.84v1.45c0 13.5-5.69 21.21-15.44 24.79a.83.83 0 0 0-.55.78v10.63a.85.85 0 0 0 1 .83c9.53-1.87 18.43-7.21 23.37-17.15a.84.84 0 0 1 .58-.44c13.42-2.52 28.41-11.9 28.47-35.59v-1.71a.85.85 0 0 0-.84-.84H90.53a.85.85 0 0 0-.84.84v10.37a.85.85 0 0 0 .84.84zm161.9-13.81h-5.81a.84.84 0 0 0-.84.84v7a.84.84 0 0 0 .84.84h5.81a.85.85 0 0 0 .84-.84v-7a.85.85 0 0 0-.84-.84zm122.48 13.51h38.69a.84.84 0 0 1 .8 1.08 16.39 16.39 0 0 1-8.97 11.09.85.85 0 0 1-1.21-.81c.09-1.25.12-2.55.12-3.89v-2.25a.84.84 0 0 0-.84-.84h-10.77a.85.85 0 0 0-.84.84v1.45c0 13.51-5.68 21.21-15.43 24.79a.84.84 0 0 0-.56.79v10.58a.85.85 0 0 0 1 .83c9.53-1.87 18.43-7.21 23.38-17.15a.8.8 0 0 1 .58-.44c13.41-2.52 28.4-11.9 28.46-35.58v-1.7a.85.85 0 0 0-.84-.84h-53.57a.84.84 0 0 0-.84.84v10.38a.83.83 0 0 0 .84.83zm-119.12-4.83h5.81a.85.85 0 0 0 .84-.84v-7a.85.85 0 0 0-.84-.84h-5.81a.84.84 0 0 0-.84.84v7a.84.84 0 0 0 .84.84zm81.34-9h-11.64a.85.85 0 0 0-.84.84v56.38a.85.85 0 0 0 .84.84h11.64a.84.84 0 0 0 .84-.84V41.07a.84.84 0 0 1 1-.83c10.15 1.74 24.76 4.52 34.11 6.47a.83.83 0 0 0 1-.82V34.73a.83.83 0 0 0-.65-.82c-9.4-2-23.45-4.56-34.75-6.41a.83.83 0 0 1-.7-.82V10.27a.84.84 0 0 0-.85-.84zm-29.7 29a54.35 54.35 0 0 0 7.08-25.87.85.85 0 0 0-.85-.87h-43.84a.84.84 0 0 0-.84.84v10.46a.83.83 0 0 0 .84.84h28a.85.85 0 0 1 .82 1.07c-4.44 15.6-18.93 25.91-32.53 29.42a.81.81 0 0 0-.62.8v10.67a.84.84 0 0 0 1 .84 62 62 0 0 0 31.4-15.94.84.84 0 0 1 1.28.15 38.18 38.18 0 0 0 21.49 16.24.85.85 0 0 0 1.06-.82V54.37a.83.83 0 0 0-.47-.75 28.22 28.22 0 0 1-13.82-14.44.83.83 0 0 1 0-.75zm-297 28l11.84-2.8a.84.84 0 0 0 .65-.82V42.55a.84.84 0 0 0-.86-.84l-11.85.23a.84.84 0 0 0-.83.84v22.84a.84.84 0 0 0 1.05.81z" fill="#ed6c00"/><path d="M72.49 14.64a1.69 1.69 0 0 0-1-1.57L40.02.19a2.55 2.55 0 0 0-1.92 0L6.67 13.07a1.69 1.69 0 0 0 0 3.13l31.76 12.97a1.73 1.73 0 0 0 .64.12 1.81 1.81 0 0 0 .64-.12L71.43 16.2a1.68 1.68 0 0 0 1.06-1.56z" fill="#e60012"/><path d="M53.16 41.22l24.56-10a.82.82 0 0 0 .52-.77v-9.57a1.68 1.68 0 0 0-.75-1.4 1.63 1.63 0 0 0-1.57-.16L43.18 32.69a2.53 2.53 0 0 0-1.57 2.34v25.59a.84.84 0 0 0 1.16.78l22.84-9.33a1.71 1.71 0 0 1 1.58.16 1.68 1.68 0 0 1 .75 1.4 2.53 2.53 0 0 1-1.57 2.34l-24.24 9.9a.85.85 0 0 0-.52.78v8.65a1.7 1.7 0 0 0 1.69 1.69 1.63 1.63 0 0 0 .64-.13l32.73-13.37a2.52 2.52 0 0 0 1.57-2.34V36.43a.84.84 0 0 0-1.16-.78l-23.16 9.48a1.77 1.77 0 0 1-.64.12 1.7 1.7 0 0 1-1.69-1.69 2.54 2.54 0 0 1 1.57-2.34z" fill="#fabe00"/><circle cx="19.92" cy="50.72" r=".85" fill="#fff"/><path d="M36.63 35.03V75.3a1.7 1.7 0 0 1-1.69 1.69 1.55 1.55 0 0 1-.63-.13l-8.14-3.32a.85.85 0 0 1-.53-.78V49.88a1.58 1.58 0 0 0-1-1.47l-14.21-5.82a.78.78 0 0 0-.71.07.76.76 0 0 0-.33.62v22.15a.84.84 0 0 1-1.16.78l-6.66-2.72A2.52 2.52 0 0 1 0 61.15V20.88a1.68 1.68 0 0 1 .75-1.4 1.65 1.65 0 0 1 1.58-.16l32.73 13.37a2.53 2.53 0 0 1 1.57 2.34zm-11.87 1.95l-14.47-5.91a.78.78 0 0 0-.71.08.77.77 0 0 0-.34.63v2.25a1.58 1.58 0 0 0 1 1.48l14.46 5.92a.75.75 0 0 0 .29.06.83.83 0 0 0 .43-.13.76.76 0 0 0 .33-.63v-2.3a1.61 1.61 0 0 0-.99-1.45z" fill="#fabe00"/></svg>