<svg xmlns="http://www.w3.org/2000/svg" viewBox="0 0 130.57 98.48"><defs><style>.a{fill:#e60012}.b{fill:#fabe00}</style></defs><path class="a" d="M18.6 85.73h2.12v1.87h.05a4.19 4.19 0 0 1 3.92-2.08 3.64 3.64 0 0 1 3.5 2.4 4.4 4.4 0 0 1 3.81-2.4c3.14 0 4.27 2 4.27 4.72v7.91H34V90.8c0-1.53-.32-3.15-2.16-3.15-2.32 0-2.95 2-2.95 4.28v6.22h-2.63V90.8c0-1.53-.31-3.15-2.15-3.15-2.32 0-3 2-3 4.28v6.22H18.6zm57.06 0h2.12v1.87a4.19 4.19 0 0 1 3.92-2.08 3.64 3.64 0 0 1 3.5 2.4 4.4 4.4 0 0 1 3.83-2.4c3.14 0 4.27 2 4.27 4.72v7.91H91V90.8c0-1.53-.32-3.15-2.16-3.15-2.32 0-2.95 2-2.95 4.28v6.22h-2.57V90.8c0-1.53-.31-3.15-2.16-3.15-2.31 0-3 2-3 4.28v6.22h-2.5zm-3.33 9.62a7.38 7.38 0 0 1-3.82 1.24 4.19 4.19 0 0 1-4.24-4.14h9a2.89 2.89 0 0 0 0-.72c-.16-3.62-1.57-6.28-5.46-6.28-3.51 0-6 2.6-6 6.28 0 4 2.2 6.72 6.61 6.72a9.5 9.5 0 0 0 3.92-.8zm-8.06-4.6a3.57 3.57 0 0 1 3.48-3.46c2 0 3.09 1.56 3.09 3.46h-6.57m41.9 4.6a7.35 7.35 0 0 1-3.82 1.24 4.19 4.19 0 0 1-4.24-4.14h9a3.47 3.47 0 0 0 0-.72c-.17-3.62-1.58-6.28-5.47-6.28-3.51 0-6 2.6-6 6.28 0 4 2.2 6.72 6.61 6.72a9.5 9.5 0 0 0 3.92-.8zm-8.06-4.6a3.57 3.57 0 0 1 3.48-3.46c2 0 3.09 1.56 3.09 3.46h-6.57m-45.96 5.02a6.45 6.45 0 0 0 3 .72c1 0 2.18-.39 2.18-1.69.01-2.22-5.33-1.8-5.33-5.43 0-2.52 2.16-4 4.57-4a10.1 10.1 0 0 1 2.93.5l-.07 2a7.8 7.8 0 0 0-2.63-.53c-1.14 0-2.22.52-2.22 1.52 0 2.48 5.57 1.76 5.57 5.64 0 2.59-2.35 3.92-4.51 3.92a7.5 7.5 0 0 1-3.48-.6zm78.22-8.12h-3.22v6.73c0 1.44.81 2.12 1.86 2.12a3.88 3.88 0 0 0 1.56-.24v1.93a7.77 7.77 0 0 1-1.95.25c-2.36 0-3.83-1.11-3.83-3.6v-7.19H122v-1.92h2.8v-3.12l2.36-.49v3.61h3.22zm-21.24-1.92h2.22v2h.05a4.42 4.42 0 0 1 4.06-2.21c3.34 0 4.66 2.12 4.66 5.49v7.18h-2.41v-6.47c0-2.83-.58-4.14-2.51-4.26-2.61 0-3.7 1.92-3.7 5v5.75h-2.37zM49.82 98.16H47.6v-2a4.26 4.26 0 0 1-3.94 2.26c-3.22 0-4.79-2-4.79-5.39v-7.3h2.35v6.43c0 2.9.67 4.21 2.67 4.33 2.61 0 3.61-2 3.61-5v-5.76h2.36zM0 98.16h2.55l1.68-4.3h8.11l1.66 4.3h2.63l-7-17H7.12zm11.58-6.29H5l3.3-8.43 3.29 8.43"/><path class="b" d="M121.33 43.69c1.94-6.09-.67-12-5.5-17.24l-1.46-1.59c-.12.45-.26.91-.41 1.37a19.53 19.53 0 0 0-1.09 5.92c.1 5.3 2.66 9.86 5.38 14.5.31.52.6 1.05.88 1.58.1-.19.2-.39.29-.58a35.73 35.73 0 0 0 1.91-4M61.15 66.56c-7.26-1.18-18.27-2.15-27.21-4.15a46.69 46.69 0 0 1-5.26-1.47 63 63 0 0 0 4.72 4.2 47.53 47.53 0 0 0 22.46 9.38c11.3 1.51 25.22 1.49 35.43-2 .69-.23 1.37-.48 2-.75-1.06-.06-2.13-.14-3.21-.25-10.79-1-22-3.87-29-5"/><path class="a" d="M106 16.25c3.1 2.9 6.12 6.14 8.39 8.61 1.51-5.61.77-10.32-2.35-14.48C107.87 4.86 99.09 3.61 91.33 5l-.33.09c.53.3 1 .61 1.56.92A85.18 85.18 0 0 1 106 16.25M95.61 70.73a18.47 18.47 0 0 1-2.29 1.07q2.09.14 4.11.15c12 .07 22.23-3.19 23.79-14.91a11.88 11.88 0 0 0-.53-5.21 21.77 21.77 0 0 0-1.56-3.6 38.09 38.09 0 0 1-2.65 4.35c-5.13 7.3-13.06 13.72-20.87 18.15M26.22 58.52c-8.54-8.74-10.55-19.19-7.32-28.67a23.36 23.36 0 0 1 1.48-3.42 41.42 41.42 0 0 0-3.49 2.32C5.81 37 5.37 46.61 18.34 55.83a44.67 44.67 0 0 0 10.07 5c.09 0 .18.06.27.09-1-1-1.93-1.87-2.46-2.42"/><path class="b" d="M59.59 13.24c13.72-4 27.34-7.26 28-7.4L91 5.09A40.26 40.26 0 0 0 76.53.42c-13.89-1.91-24.27 3-35.33 8.89-9.12 4.84-16.85 9.69-20.82 17.12A61.14 61.14 0 0 1 30 21.85c4.92-1.89 22.9-6.65 29.62-8.61"/><path d="M118.25 46.65c-2.72-4.64-5.28-9.2-5.38-14.5a19.53 19.53 0 0 1 1.13-5.92c.15-.46.29-.92.41-1.37-2.27-2.47-5.29-5.71-8.39-8.61A85.18 85.18 0 0 0 92.51 6c-.51-.31-1-.62-1.56-.92l-3.4.75c-.62.14-14.24 3.4-28 7.4C52.88 15.2 34.89 20 30 21.85a61.14 61.14 0 0 0-9.59 4.58 23.83 23.83 0 0 0-1.48 3.42c-3.23 9.48-1.22 19.93 7.32 28.67.53.55 1.44 1.44 2.46 2.42a46.69 46.69 0 0 0 5.26 1.47c8.94 2 20 3 27.21 4.15 6.92 1.12 18.17 4 29 5 1.08.11 2.15.19 3.21.25a18.47 18.47 0 0 0 2.29-1.07c7.81-4.43 15.74-10.85 20.87-18.15a38.09 38.09 0 0 0 2.65-4.35c-.28-.53-.57-1.06-.88-1.58" fill="#ed6c00"/><path d="M33.81 33.65H35c1.33 0 2.85.14 2.85 1.74S36.38 37.1 35 37.1h-1.19zm-3.88 6.23h6.14c2.6 0 5.66-.74 5.66-4.25 0-1.8-1-2.85-2.93-3.25v-.05a3.32 3.32 0 0 0 2.56-3.43c0-2.53-2-3.73-4.73-3.73h-6.7zM33.81 28h1.12c1.3 0 2.55.13 2.55 1.48S36.16 31 34.89 31h-1.08zm17.32 6h-3.65l1.88-5.75zm-9.64 5.92h3.95l1.15-3.14h5.46l1.08 3.14h4.26l-5.61-14.75H47zm16.66-14.75h4.95l4.93 9.99h.03l-.05-9.99h3.54v14.71h-4.82l-5.09-10.05h-.04l.12 10.05h-3.57V25.17zm19.49 2.91h1.51c2.83 0 4.52 1.51 4.52 4.45S82.05 37 79.15 37h-1.51zm-3.88 11.8h5.3c5 0 8.61-1.92 8.61-7.41 0-5.7-3.54-7.3-8.61-7.3h-5.3zM96.45 34h-3.66l1.88-5.75zm-9.65 5.88h3.94l1.15-3.14h5.47l1.08 3.14h4.26l-5.61-14.71h-4.76zm16.49-14.71h3.88v14.71h-3.88zM29.93 43.08h4.99l4.98 10h.05l-.07-10h3.58v14.71h-4.87l-5.14-10.05h-.04l.13 10.05h-3.61V43.08zM54 51.87h-3.7l1.89-5.75zm-9.74 5.92h4l1.15-3.13h5.52L56 57.79h4.3l-5.66-14.71h-4.81zm16.83-14.71h6.19l2.54 9.78h.05l2.69-9.78h5.94v14.71h-3.83l.06-11.29h-.04l-3.18 11.29h-3.6L64.89 46.5h-.04l.08 11.29h-3.84V43.08zm31.55 14.38a16.56 16.56 0 0 1-4.37.59c-3.92 0-8.45-2-8.45-7.55 0-5.11 3.58-7.67 8.43-7.67a15.29 15.29 0 0 1 4.36.76l-.32 3.18a7.73 7.73 0 0 0-3.83-1 4.47 4.47 0 0 0-4.59 4.76c0 2.9 2 4.65 4.9 4.65a10.35 10.35 0 0 0 3.67-.77zm4.65-7.02c0-2.55.94-4.7 3.33-4.7s3.33 2.15 3.33 4.7-1 4.71-3.33 4.71-3.33-2.29-3.33-4.71m-4.05 0c0 4.68 2.57 7.61 7.38 7.61s7.38-2.93 7.38-7.61-2.52-7.61-7.37-7.61-7.38 2.89-7.38 7.61" fill="#fff"/></svg>