<svg xmlns="http://www.w3.org/2000/svg" viewBox="0 0 26.06 18.03" width="113" height="79"><defs><style>.a{fill:#ff5c00}.b{fill:#ffbf00}</style></defs><path class="a" d="M17.19 0H2.06A2.06 2.06 0 0 0 0 2.06V12a2.06 2.06 0 0 0 2.06 2.06H7.9v3.16h-3a.36.36 0 0 0 0 .72h9.48a.36.36 0 1 0 0-.72h-3v-3.16h5.84a2.05 2.05 0 0 0 2-2.06V2.06A2.05 2.05 0 0 0 17.19 0z"/><rect class="b" x="3.83" y="-1.23" width="11.59" height="16.52" rx="1.21" ry="1.21" transform="rotate(90 9.62 7.03)"/><rect class="a" x="19.91" y="7.74" width="6.15" height="10.28" rx=".85" ry=".85"/><rect class="b" x="20.61" y="8.52" width="4.74" height="7.56" rx=".46" ry=".46"/><rect x="22.51" y="16.67" width=".95" height=".95" rx=".12" ry=".12" fill="#fff"/></svg>